{"glyphs":{":":{"x_min":0,"x_max":191,"ha":191,"o":"m 99 428 l 110 531 l 169 531 l 158 428 z m 62 76 l 73 178 l 132 178 l 121 76 z"},"$":{"x_min":0,"x_max":451,"ha":451,"o":"m 202 -94 l 210 -10 q 38 -7 42 200 l 91 215 q 92 180 96 155 q 99 129 108 106 q 116 82 130 67 q 145 52 167 43 q 190 35 221 35 q 351 35 364 165 q 369 214 348 255 q 328 296 278 352 l 146 499 q 83 569 91 653 q 99 729 148 772 q 197 814 273 818 l 283 913 l 313 913 l 303 818 q 382 814 420 768 q 458 721 453 616 l 406 605 q 408 694 380 735 q 353 776 283 775 q 224 774 186 745 q 147 716 141 657 q 134 594 188 534 l 319 390 q 369 334 395 281 q 421 228 416 168 q 407 87 360 42 q 313 -3 240 -9 l 230 -94 z"},"?":{"x_min":0,"x_max":466,"ha":466,"o":"m 158 0 l 166 73 l 218 73 l 210 0 z m 181 200 l 194 323 q 300 389 349 456 q 399 524 408 608 q 412 649 405 682 q 397 715 380 734 q 363 753 340 763 q 318 773 291 773 q 228 773 190 739 q 152 704 160 642 l 164 606 l 116 594 l 111 631 q 105 676 117 713 q 130 750 156 773 q 183 795 219 808 q 255 820 296 820 q 375 820 422 765 q 469 710 458 607 q 452 543 424 490 q 397 437 353 394 q 308 352 239 308 l 228 200 z"},"<":{"x_min":0,"x_max":357,"ha":357,"o":"m 288 77 l 38 282 l 43 333 l 337 547 l 331 490 l 82 308 l 293 133 z"},"'":{"x_min":0,"x_max":238,"ha":238,"o":"m 120 580 l 144 810 l 198 810 l 148 580 z"},"=":{"x_min":0,"x_max":392,"ha":392,"o":"m 75 451 l 80 495 l 374 495 l 369 451 z m 59 288 l 63 333 l 356 333 l 352 288 z"},"a":{"x_min":0,"x_max":379,"ha":379,"o":"m 150 35 q 185 35 214 58 q 244 81 265 116 l 285 306 q 181 254 153 237 q 109 208 95 174 q 86 154 83 125 q 78 78 98 56 q 118 35 150 35 z m 132 -9 q 80 -9 52 26 q 24 61 29 117 q 34 156 45 181 q 56 207 86 233 q 117 260 162 284 q 208 309 290 345 l 294 386 q 302 448 296 484 q 291 520 276 533 q 261 547 230 547 q 211 547 196 542 q 181 538 166 527 q 150 516 140 493 q 130 471 127 438 l 125 422 l 74 423 q 74 424 74 431 q 75 438 75 438 q 86 518 126 552 q 166 587 237 587 q 309 587 334 542 q 358 497 347 392 l 316 101 q 309 15 309 0 l 264 0 q 263 65 263 77 q 245 39 209 15 q 174 -9 132 -9 z"},"L":{"x_min":0,"x_max":373,"ha":373,"o":"m 54 0 l 139 810 l 193 810 l 113 43 l 357 43 l 353 0 z"},"3":{"x_min":0,"x_max":485,"ha":485,"o":"m 216 -11 q 47 -11 66 180 l 68 195 l 118 195 q 118 194 117 187 q 117 180 116 179 q 109 106 134 69 q 159 32 221 32 q 250 32 274 41 q 298 49 319 69 q 340 89 354 126 q 368 163 373 215 q 392 398 262 400 l 239 400 l 244 447 l 267 447 q 337 447 372 488 q 406 529 416 620 q 432 776 310 776 q 243 776 208 742 q 172 708 164 629 q 164 628 163 623 q 163 618 163 617 l 112 617 l 113 630 q 123 720 170 770 q 218 819 314 819 q 359 819 392 804 q 425 789 443 761 q 461 734 468 698 q 475 663 470 620 q 461 532 424 482 q 387 433 334 422 q 350 418 365 410 q 379 401 393 385 q 407 369 416 346 q 424 323 429 290 q 433 258 428 216 q 417 110 365 50 q 313 -11 216 -11 z"},";":{"x_min":0,"x_max":204,"ha":204,"o":"m 100 438 l 111 542 l 170 542 l 159 438 z m 59 -17 l 47 6 q 75 23 84 39 q 94 55 98 85 l 63 85 l 73 182 l 136 182 l 127 97 q 123 49 108 24 q 93 0 59 -17 z"},"J":{"x_min":0,"x_max":265,"ha":265,"o":"m -18 -45 l -13 -2 q 18 -2 38 0 q 58 1 74 9 q 90 16 98 25 q 107 34 114 54 q 121 73 124 94 q 126 114 130 150 l 200 810 l 254 810 l 185 144 q 180 101 174 74 q 168 46 157 22 q 145 -3 127 -16 q 108 -30 80 -37 q 51 -45 11 -45 z"},"V":{"x_min":0,"x_max":480,"ha":480,"o":"m 199 0 l 89 810 l 142 810 l 234 95 l 467 810 l 520 810 l 250 0 z"},"\"":{"x_min":0,"x_max":341,"ha":341,"o":"m 251 580 l 275 810 l 330 810 l 280 580 z m 120 580 l 144 810 l 198 810 l 148 580 z"},"7":{"x_min":0,"x_max":462,"ha":462,"o":"m 152 0 l 397 766 l 135 766 l 140 810 l 457 810 l 454 783 l 205 0 z"},"S":{"x_min":0,"x_max":452,"ha":452,"o":"m 215 -10 q 37 -10 42 200 l 91 215 q 92 180 96 155 q 99 129 108 106 q 116 82 130 67 q 145 52 167 43 q 190 35 221 35 q 351 35 364 165 q 369 214 348 255 q 328 296 278 352 l 146 499 q 83 569 91 653 q 100 732 152 775 q 205 818 286 819 q 374 819 416 773 q 458 726 453 616 l 406 605 q 408 694 380 735 q 353 776 283 775 q 224 774 186 745 q 147 716 141 657 q 134 594 188 534 l 319 390 q 369 334 395 281 q 421 228 416 168 q 406 80 352 35 q 298 -10 215 -10 z"},"}":{"x_min":0,"x_max":238,"ha":238,"o":"m -13 -149 l -9 -108 q 41 -108 52 -86 q 63 -63 75 53 l 89 190 q 97 265 113 296 q 128 328 160 337 q 130 347 121 378 q 112 410 120 484 l 134 616 q 147 730 141 754 q 134 777 84 777 l 88 817 q 107 817 120 817 q 133 816 145 813 q 157 811 164 808 q 172 805 178 797 q 185 790 188 783 q 191 777 193 763 q 195 750 196 738 q 196 727 195 705 q 193 683 192 665 q 190 647 187 616 l 174 500 q 165 418 173 389 q 182 360 218 360 l 213 314 q 177 314 163 286 q 149 258 140 175 l 127 53 q 122 1 119 -25 q 115 -51 108 -78 q 101 -105 94 -116 q 86 -126 70 -135 q 55 -145 36 -147 q 18 -149 -13 -149 z"},"Z":{"x_min":0,"x_max":401,"ha":401,"o":"m 10 0 l 15 43 l 382 767 l 117 767 l 122 810 l 445 810 l 442 776 l 70 43 l 366 43 l 361 0 z"},"x":{"x_min":0,"x_max":375,"ha":375,"o":"m 0 0 l 172 301 l 69 578 l 123 578 l 208 349 l 338 578 l 393 578 l 227 296 l 334 0 l 284 0 l 192 246 l 52 0 z"},")":{"x_min":0,"x_max":255,"ha":255,"o":"m -6 -147 l -1 -109 q 59 -101 90 -10 q 116 62 136 241 q 139 267 145 322 q 146 330 146 334 q 166 526 167 593 q 169 723 128 760 q 113 773 92 776 l 96 815 q 124 813 145 804 q 166 794 179 774 q 192 753 202 732 q 211 710 214 672 q 217 634 218 604 q 219 574 216 521 q 212 469 208 433 q 205 397 199 334 q 191 263 187 223 q 182 183 173 125 q 164 67 154 35 q 145 3 130 -35 q 115 -74 96 -94 q 78 -114 52 -129 q 26 -145 -6 -147 z"},"&":{"x_min":0,"x_max":602,"ha":602,"o":"m 253 447 q 329 512 375 568 q 420 625 426 680 q 431 725 404 750 q 376 774 324 774 q 267 774 233 741 q 200 707 194 654 q 189 611 203 567 q 216 523 253 447 z m 233 34 q 273 34 309 51 q 345 67 383 103 l 234 382 q 170 320 142 272 q 113 224 108 174 q 106 154 108 135 q 110 116 119 97 q 127 79 142 65 q 156 51 179 42 q 203 34 233 34 z m 228 -11 q 180 -11 144 4 q 108 19 88 45 q 68 71 59 104 q 51 137 55 175 q 61 232 97 289 q 133 346 216 420 q 168 514 153 559 q 137 604 142 653 q 150 732 201 775 q 251 819 330 819 q 406 819 445 781 q 484 743 478 678 q 471 620 419 556 q 367 492 270 414 l 417 136 q 453 176 482 241 q 511 305 518 351 l 566 351 q 561 296 526 224 q 492 152 442 102 q 466 67 487 55 q 508 43 536 43 l 531 -6 q 520 -6 510 -4 q 449 4 408 69 q 373 34 326 11 q 279 -11 228 -11 z"},"_":{"x_min":0,"x_max":325,"ha":325,"o":"m -30 -90 l -25 -46 l 299 -46 l 295 -90 z"},"v":{"x_min":0,"x_max":357,"ha":357,"o":"m 131 0 l 59 578 l 113 578 l 167 67 l 326 578 l 378 578 l 190 0 z"},"O":{"x_min":0,"x_max":516,"ha":516,"o":"m 236 -11 q 189 -11 156 1 q 122 13 102 34 q 82 56 71 86 q 60 116 59 152 q 58 188 61 230 l 99 584 q 104 638 118 679 q 132 720 158 753 q 184 785 225 802 q 267 819 323 819 q 379 819 417 802 q 455 784 473 753 q 492 722 499 678 q 505 635 499 584 l 461 229 q 455 174 441 133 q 428 91 402 58 q 377 24 335 7 q 293 -11 236 -11 z m 405 218 l 444 592 q 449 633 446 667 q 442 700 429 724 q 417 748 389 761 q 361 774 318 774 q 276 774 246 762 q 215 749 197 724 q 179 699 169 667 q 159 636 154 592 l 115 218 q 110 177 114 143 q 117 109 130 85 q 142 61 170 48 q 198 34 240 34 q 283 34 313 47 q 344 60 362 85 q 380 111 390 143 q 400 175 405 218 z"},"(":{"x_min":0,"x_max":266,"ha":266,"o":"m 199 -147 q 171 -145 150 -135 q 129 -125 116 -103 q 102 -82 93 -61 q 84 -39 81 -1 q 78 37 76 66 q 75 96 79 148 q 83 200 86 236 q 89 271 96 333 q 103 405 108 446 q 113 487 122 545 q 131 603 140 635 q 149 668 165 706 q 180 745 198 765 q 216 785 242 799 q 268 813 300 815 l 296 776 q 271 773 251 758 q 232 743 218 709 q 203 675 194 646 q 184 616 175 556 q 167 496 162 458 q 158 421 149 343 q 149 336 148 333 q 128 140 127 70 q 126 -59 168 -94 q 183 -106 203 -109 z"},"C":{"x_min":0,"x_max":489,"ha":489,"o":"m 233 -11 q 186 -11 152 2 q 118 14 99 36 q 80 58 70 89 q 59 120 59 156 q 58 192 62 233 l 98 577 q 102 621 111 656 q 121 691 138 722 q 155 753 179 774 q 203 795 239 807 q 274 819 320 819 q 372 819 407 802 q 442 786 459 756 q 476 727 482 685 q 488 643 481 591 l 477 550 l 425 550 l 430 591 q 435 634 432 668 q 429 702 417 726 q 406 750 381 762 q 355 774 316 774 q 273 774 243 761 q 213 748 195 721 q 177 694 167 661 q 158 629 153 583 l 116 225 q 110 180 114 144 q 117 109 130 84 q 143 60 170 47 q 197 34 238 34 q 277 34 305 47 q 333 60 350 85 q 367 110 376 142 q 385 173 390 218 l 395 267 l 447 267 l 443 227 q 438 172 425 131 q 412 90 388 57 q 364 23 325 6 q 286 -11 233 -11 z"},"W":{"x_min":0,"x_max":706,"ha":706,"o":"m 154 0 l 98 809 l 146 810 l 191 107 l 393 792 l 446 792 l 507 107 l 689 810 l 737 810 l 520 0 l 474 0 l 411 709 l 201 0 z"},"A":{"x_min":0,"x_max":468,"ha":468,"o":"m 145 264 l 339 264 l 291 744 z m 11 0 l 267 810 l 329 810 l 415 0 l 360 0 l 342 224 l 132 224 l 65 0 z"},"f":{"x_min":0,"x_max":256,"ha":256,"o":"m 74 0 l 131 541 l 53 541 l 57 578 l 135 578 l 143 656 q 146 682 149 698 q 152 715 159 733 q 167 752 177 762 q 188 773 207 780 q 226 787 251 787 q 279 787 303 780 l 299 740 q 269 746 257 746 q 225 746 213 727 q 201 708 196 657 l 188 578 l 284 578 l 281 541 l 184 541 l 127 0 z"},"Q":{"x_min":0,"x_max":523,"ha":523,"o":"m 412 218 l 451 592 q 457 633 452 667 q 448 700 435 724 q 421 748 393 761 q 365 774 322 774 q 240 774 202 728 q 164 681 154 592 l 115 218 q 110 177 114 143 q 118 109 131 85 q 145 61 173 48 q 202 34 244 34 q 287 34 318 47 q 349 60 368 85 q 387 111 397 143 q 408 175 412 218 z m 390 -155 q 364 -134 329 -92 q 293 -50 269 -10 q 250 -11 239 -11 q 193 -11 159 1 q 125 13 104 34 q 84 56 72 86 q 61 116 59 152 q 58 188 61 230 l 99 584 q 104 638 119 679 q 134 721 160 753 q 187 785 229 802 q 271 819 327 819 q 383 819 421 802 q 459 785 479 752 q 499 720 505 679 q 511 638 506 584 l 468 229 q 462 168 446 124 q 430 80 396 45 q 362 11 312 -1 q 328 -26 364 -67 q 400 -107 421 -126 z"},"w":{"x_min":0,"x_max":566,"ha":566,"o":"m 107 0 l 73 578 l 120 578 l 146 61 l 299 578 l 350 578 l 397 63 l 526 578 l 573 578 l 420 0 l 365 0 l 318 507 l 167 0 z"},"-":{"x_min":0,"x_max":283,"ha":283,"o":"m 51 319 l 56 363 l 262 363 l 258 319 z"},"E":{"x_min":0,"x_max":393,"ha":393,"o":"m 53 0 l 138 810 l 418 810 l 414 766 l 188 766 l 154 441 l 339 441 l 335 399 l 150 399 l 113 43 l 341 43 l 336 0 z"},"s":{"x_min":0,"x_max":356,"ha":356,"o":"m 166 -9 q 98 -9 63 35 q 27 79 30 156 l 76 169 q 74 98 98 64 q 123 31 172 31 q 216 31 243 55 q 270 80 274 125 q 280 190 204 260 l 143 317 q 102 354 86 388 q 70 421 75 464 q 82 522 120 555 q 159 587 219 587 q 282 587 310 547 q 339 507 334 436 l 293 424 q 302 547 217 547 q 179 547 153 527 q 128 507 124 470 q 121 437 131 413 q 141 390 172 360 l 234 299 q 257 277 270 263 q 283 249 298 227 q 312 204 318 179 q 324 153 321 124 q 315 61 273 26 q 231 -9 166 -9 z"},">":{"x_min":0,"x_max":357,"ha":357,"o":"m 44 77 l 50 133 l 299 316 l 88 491 l 94 547 l 344 341 l 339 290 z"},"l":{"x_min":0,"x_max":186,"ha":186,"o":"m 46 0 l 131 810 l 185 810 l 100 0 z"},"8":{"x_min":0,"x_max":489,"ha":489,"o":"m 271 447 q 339 452 372 495 q 406 538 414 617 q 423 698 396 736 q 369 774 305 774 q 241 774 206 736 q 171 698 163 617 q 155 538 179 495 q 204 452 271 447 z m 377 212 q 387 298 361 345 q 335 393 266 401 q 195 393 159 345 q 123 298 114 212 q 104 116 133 74 q 163 32 227 32 q 291 32 329 74 q 368 116 377 212 z m 223 -11 q 38 -11 61 211 q 64 244 72 272 q 80 300 88 319 q 97 339 110 355 q 123 372 133 382 q 144 391 160 400 q 176 410 185 414 q 194 417 209 424 q 155 440 129 490 q 103 539 111 619 q 115 663 128 698 q 141 732 164 760 q 187 789 224 804 q 261 819 310 819 q 358 819 392 803 q 426 788 443 759 q 460 731 466 696 q 471 660 466 616 q 458 537 422 489 q 385 441 327 424 q 337 419 343 417 q 348 414 358 409 q 368 403 374 398 q 380 394 389 386 q 398 378 404 369 q 409 360 415 349 q 422 337 425 323 q 428 309 431 292 q 434 276 433 255 q 433 234 431 211 q 407 -11 223 -11 z"},"\\":{"x_min":0,"x_max":329,"ha":329,"o":"m 238 0 l 85 810 l 133 810 l 286 0 z"},"e":{"x_min":0,"x_max":379,"ha":379,"o":"m 113 334 l 298 334 l 303 379 q 308 431 307 469 q 306 506 288 527 q 270 547 231 547 q 196 547 175 534 q 154 521 140 483 q 125 446 118 378 z m 171 -9 q 147 -9 129 -5 q 111 -1 94 9 q 78 19 68 35 q 58 52 51 77 q 44 102 44 135 q 44 169 47 214 l 63 368 q 69 421 80 460 q 91 500 106 524 q 121 548 141 562 q 162 577 184 582 q 206 587 235 587 q 315 587 341 535 q 366 483 353 357 l 346 302 l 110 302 l 100 210 q 92 142 99 102 q 105 62 123 46 q 141 31 175 31 q 190 31 201 33 q 212 35 226 42 q 240 49 250 61 q 260 74 268 97 q 276 120 279 152 l 284 195 l 336 195 l 332 157 q 323 77 286 34 q 249 -9 171 -9 z"},"b":{"x_min":0,"x_max":397,"ha":397,"o":"m 192 32 q 244 32 268 79 q 291 125 303 236 l 314 349 q 322 417 320 461 q 317 505 300 525 q 283 546 247 546 q 196 546 141 492 l 98 84 q 136 32 192 32 z m 194 -9 q 133 -9 95 48 l 89 0 l 36 0 l 121 810 l 174 810 l 145 529 q 196 587 262 587 q 313 587 340 558 q 367 528 370 475 q 374 422 367 349 l 355 238 q 342 111 306 51 q 270 -9 194 -9 z"},"%":{"x_min":0,"x_max":636,"ha":636,"o":"m 135 0 l 498 820 l 547 820 l 185 0 z m 470 -6 q 369 -6 382 130 l 397 272 q 412 406 514 406 q 615 406 602 273 l 586 129 q 573 -6 470 -6 z m 475 35 q 503 35 518 59 q 533 83 538 127 l 553 274 q 563 364 509 364 q 480 364 466 341 q 451 317 446 274 l 431 127 q 426 82 436 59 q 445 35 475 35 z m 167 417 q 65 417 80 554 l 95 696 q 108 830 211 830 q 312 830 299 697 l 284 553 q 270 417 167 417 z m 235 551 l 250 698 q 260 788 206 788 q 152 788 144 698 l 128 551 q 123 506 133 482 q 143 459 172 459 q 201 459 216 482 q 230 506 235 551 z"},"m":{"x_min":0,"x_max":619,"ha":619,"o":"m 36 0 l 96 578 l 149 578 l 144 517 q 211 587 288 587 q 358 587 366 511 q 436 587 516 587 q 558 587 579 557 q 601 526 594 461 l 545 0 l 492 0 l 540 455 q 544 505 531 526 q 518 546 488 546 q 432 546 366 481 q 366 474 365 458 l 317 0 l 264 0 l 312 455 q 316 505 303 526 q 290 546 260 546 q 205 546 140 482 l 89 0 z"},"#":{"x_min":0,"x_max":453,"ha":453,"o":"m 181 331 l 286 331 l 331 499 l 226 499 z m 43 0 l 121 292 l 57 292 l 61 331 l 131 331 l 176 499 l 97 499 l 101 538 l 186 538 l 258 810 l 308 810 l 236 538 l 341 538 l 413 810 l 463 810 l 391 538 l 448 538 l 444 499 l 381 499 l 336 331 l 408 331 l 404 292 l 326 292 l 249 0 l 198 0 l 275 292 l 171 292 l 93 0 z"},",":{"x_min":0,"x_max":177,"ha":177,"o":"m 37 -107 l 25 -84 q 52 -66 62 -48 q 73 -31 76 0 l 40 0 l 51 105 l 116 105 l 106 11 q 101 -35 86 -61 q 71 -86 37 -107 z"},"n":{"x_min":0,"x_max":391,"ha":391,"o":"m 36 0 l 96 578 l 149 578 l 143 516 q 211 587 288 587 q 330 587 351 557 q 373 526 366 461 l 317 0 l 264 0 l 312 455 q 317 505 304 526 q 291 546 261 546 q 205 546 140 482 l 89 0 z"},"h":{"x_min":0,"x_max":392,"ha":392,"o":"m 37 0 l 122 810 l 175 810 l 144 517 q 212 587 289 587 q 331 587 352 557 q 373 526 366 461 l 318 0 l 264 0 l 312 455 q 317 505 304 526 q 291 546 261 546 q 205 546 140 482 l 90 0 z"},"z":{"x_min":0,"x_max":325,"ha":325,"o":"m 12 0 l 16 39 l 277 537 l 90 537 l 94 578 l 335 578 l 332 543 l 72 41 l 275 41 l 271 0 z"},"B":{"x_min":0,"x_max":488,"ha":488,"o":"m 156 455 l 292 455 q 325 455 349 466 q 373 478 388 500 q 402 522 410 548 q 418 574 422 608 q 427 642 423 671 q 419 700 406 721 q 394 742 365 754 q 335 766 289 766 l 189 766 z m 113 43 l 243 43 q 283 43 311 54 q 338 65 355 90 q 373 115 383 149 q 392 184 397 235 q 416 412 289 412 l 152 412 z m 54 0 l 139 810 l 306 810 q 349 810 381 799 q 414 789 432 771 q 451 752 462 727 q 473 702 474 672 q 475 642 472 608 q 469 581 463 556 q 456 531 444 506 q 431 480 409 462 q 388 443 359 437 q 386 429 405 412 q 424 395 433 375 q 443 354 448 330 q 454 305 453 282 q 452 258 451 236 q 446 195 439 164 q 433 133 418 101 q 403 68 381 47 q 360 26 325 13 q 291 0 246 0 z"},"K":{"x_min":0,"x_max":460,"ha":460,"o":"m 53 0 l 138 810 l 193 810 l 146 355 l 428 810 l 482 810 l 275 467 l 438 0 l 384 0 l 232 434 l 139 290 l 108 0 z"},"R":{"x_min":0,"x_max":508,"ha":508,"o":"m 156 450 l 295 450 q 333 450 360 460 q 386 471 402 493 q 418 515 427 543 q 435 570 439 610 q 448 692 424 729 q 400 767 328 767 l 189 767 z m 54 0 l 139 810 l 335 810 q 377 810 408 800 q 438 790 456 771 q 474 753 484 729 q 494 704 495 674 q 496 644 493 610 q 490 581 484 557 q 479 532 468 508 q 457 484 442 466 q 427 449 405 436 q 382 423 353 418 l 439 0 l 385 0 l 302 408 l 151 408 l 108 0 z"},"T":{"x_min":0,"x_max":380,"ha":380,"o":"m 144 0 l 224 766 l 53 766 l 58 810 l 452 810 l 447 766 l 279 766 l 199 0 z"},"P":{"x_min":0,"x_max":485,"ha":485,"o":"m 154 429 l 278 429 q 353 429 392 469 q 430 508 440 601 q 450 697 422 732 q 395 768 315 768 l 189 768 z m 54 0 l 139 810 l 329 810 q 382 810 418 794 q 454 779 472 750 q 490 721 495 684 q 500 648 496 601 q 491 558 478 521 q 465 485 441 454 q 417 422 377 405 q 338 387 286 387 l 149 387 l 108 0 z"},"|":{"x_min":0,"x_max":204,"ha":204,"o":"m 42 -141 l 142 810 l 191 810 l 91 -141 z"},"t":{"x_min":0,"x_max":263,"ha":263,"o":"m 162 -6 q 133 -6 115 3 q 97 12 90 29 q 83 45 81 67 q 79 89 83 114 l 128 543 l 52 543 l 56 578 l 131 578 l 151 763 l 204 763 l 185 578 l 283 578 l 279 543 l 181 543 l 136 121 q 131 71 139 53 q 147 36 178 36 q 194 36 221 41 l 217 0 q 192 -6 162 -6 z"},"M":{"x_min":0,"x_max":632,"ha":632,"o":"m 44 0 l 153 810 l 207 810 l 302 79 l 552 810 l 608 810 l 546 0 l 499 0 l 551 679 l 314 0 l 274 0 l 183 678 l 91 0 z"},"g":{"x_min":0,"x_max":429,"ha":429,"o":"m 209 223 q 320 223 337 388 q 338 407 339 428 q 339 449 333 471 q 327 492 318 510 q 308 527 289 538 q 269 548 243 548 q 216 548 194 537 q 172 525 159 508 q 145 490 135 468 q 125 445 120 426 q 115 406 113 388 q 111 371 111 354 q 111 338 113 318 q 115 298 122 282 q 128 266 139 252 q 149 238 167 230 q 185 223 209 223 z m 165 -153 q 228 -153 269 -132 q 311 -111 315 -69 q 317 -46 310 -31 q 302 -17 275 -3 q 249 10 198 21 l 135 32 q 38 -21 32 -81 q 27 -118 61 -135 q 95 -153 165 -153 z m 161 -196 q 68 -196 24 -170 q -21 -145 -16 -94 q -12 -53 22 -17 q 57 19 102 41 q 75 47 55 59 q 35 71 37 84 q 41 127 121 209 q 51 263 64 388 q 68 425 81 460 q 94 494 116 523 q 138 552 171 570 q 205 587 246 587 q 333 587 366 510 q 378 530 402 549 q 426 568 451 578 l 465 583 l 477 543 q 450 537 422 521 q 394 504 377 485 q 383 466 385 436 q 388 405 385 387 q 376 295 331 239 q 286 184 205 184 q 169 184 145 194 q 141 188 128 172 q 115 156 107 146 q 100 135 92 122 q 84 109 83 101 q 83 95 95 90 q 107 85 129 81 q 144 77 179 70 q 214 63 222 61 q 295 44 330 15 q 365 -15 359 -68 q 356 -101 338 -126 q 321 -151 293 -166 q 266 -181 232 -188 q 199 -196 161 -196 z"},"j":{"x_min":0,"x_max":202,"ha":202,"o":"m 130 678 l 139 771 l 193 771 l 183 678 z m -52 -153 l -48 -110 q -44 -111 -25 -111 q 0 -111 16 -104 q 33 -98 41 -83 q 49 -69 52 -57 q 55 -45 57 -25 l 121 578 l 174 578 l 110 -28 q 103 -95 69 -125 q 36 -155 -23 -155 q -47 -155 -52 -153 z"},"i":{"x_min":0,"x_max":189,"ha":189,"o":"m 117 678 l 126 771 l 180 771 l 170 678 z m 45 0 l 105 578 l 158 578 l 98 0 z"},"y":{"x_min":0,"x_max":375,"ha":375,"o":"m 1 -144 l 6 -101 q 40 -101 63 -98 q 87 -94 101 -88 q 115 -82 124 -72 q 132 -61 135 -50 q 138 -39 138 -21 q 139 -7 130 59 l 63 578 l 116 578 l 175 50 l 340 578 l 393 578 l 186 -47 q 168 -99 131 -121 q 93 -144 23 -144 z"},"@":{"x_min":0,"x_max":805,"ha":805,"o":"m 377 166 q 414 167 447 198 q 480 228 504 281 l 569 545 q 545 563 513 563 q 480 563 446 545 q 412 526 383 493 q 353 460 332 409 q 310 357 304 297 q 300 259 304 232 q 309 205 321 191 q 332 177 346 171 q 360 165 377 166 z m 412 -99 q 28 -99 73 332 q 85 451 125 543 q 165 636 223 693 q 281 750 351 779 q 421 808 499 809 q 675 811 746 707 q 817 604 786 396 q 776 332 756 282 q 736 233 712 206 q 689 178 661 160 q 633 142 611 136 q 588 131 568 131 q 534 131 511 156 q 489 180 497 224 q 475 181 442 154 q 409 126 368 125 q 307 123 275 168 q 243 213 251 298 q 259 365 285 423 q 311 482 347 521 q 383 560 426 583 q 469 605 511 605 q 552 605 582 580 l 592 600 l 632 600 l 551 265 q 546 240 544 225 q 542 210 544 196 q 546 182 555 175 q 564 168 582 168 q 596 168 612 174 q 628 179 648 194 q 668 209 686 233 q 703 257 718 298 q 733 340 741 393 q 750 455 751 505 q 751 556 744 595 q 736 633 720 663 q 704 692 682 712 q 660 732 630 745 q 601 757 567 762 q 534 768 494 767 q 424 766 362 737 q 300 708 250 654 q 200 601 167 518 q 133 436 123 333 q 112 235 126 162 q 140 89 167 48 q 195 7 240 -18 q 285 -42 326 -50 q 368 -58 419 -58 q 507 -58 607 -33 l 617 -72 q 490 -99 412 -99 z"},".":{"x_min":0,"x_max":177,"ha":177,"o":"m 45 0 l 56 104 l 116 104 l 105 0 z"},"p":{"x_min":0,"x_max":400,"ha":400,"o":"m 192 32 q 245 32 268 79 q 291 125 303 236 l 314 349 q 322 417 320 461 q 318 505 301 525 q 284 546 247 546 q 195 546 142 492 l 99 84 q 136 32 192 32 z m 17 -190 l 97 578 l 150 578 l 146 529 q 196 587 262 587 q 314 587 341 558 q 367 528 371 475 q 375 422 368 349 l 356 238 q 343 111 306 51 q 270 -9 194 -9 q 135 -9 95 48 l 70 -190 z"},"X":{"x_min":0,"x_max":452,"ha":452,"o":"m -6 0 l 217 421 l 80 810 l 130 810 l 253 464 l 444 810 l 499 810 l 271 412 l 417 0 l 364 0 l 236 364 l 48 0 z"},"*":{"x_min":0,"x_max":356,"ha":356,"o":"m 131 492 l 100 514 l 204 634 l 81 686 l 98 721 l 217 661 l 226 809 l 269 809 l 246 661 l 375 721 l 386 686 l 252 634 l 331 512 l 295 492 l 226 620 z"},"Y":{"x_min":0,"x_max":462,"ha":462,"o":"m 186 0 l 213 259 l 84 810 l 140 810 l 248 324 l 450 810 l 506 810 l 268 259 l 240 0 z"},"c":{"x_min":0,"x_max":375,"ha":375,"o":"m 170 -9 q 143 -9 122 -3 q 101 3 87 13 q 73 24 63 41 q 54 57 50 75 q 45 93 44 117 q 42 142 44 165 q 45 188 48 217 l 62 353 q 76 483 113 535 q 149 587 233 587 q 276 587 304 573 q 332 559 343 533 q 354 508 357 474 q 360 440 354 400 l 352 377 l 302 377 l 304 400 q 312 457 304 490 q 297 523 280 535 q 262 547 229 547 q 205 547 188 541 q 171 534 159 521 q 147 508 139 484 q 131 460 126 432 q 121 403 116 359 l 100 209 q 90 111 105 71 q 120 31 175 31 q 231 31 252 66 q 273 102 283 194 l 285 216 l 335 216 l 333 195 q 329 156 324 129 q 318 102 307 73 q 295 45 279 29 q 262 12 235 1 q 208 -9 170 -9 z"},"!":{"x_min":0,"x_max":197,"ha":197,"o":"m 87 174 l 133 810 l 194 810 l 105 174 z m 47 0 l 55 74 l 115 74 l 107 0 z"},"/":{"x_min":0,"x_max":329,"ha":329,"o":"m 0 0 l 324 810 l 371 810 l 49 0 z"},"[":{"x_min":0,"x_max":279,"ha":279,"o":"m 38 -145 l 138 810 l 286 810 l 282 777 l 189 777 l 95 -112 l 189 -112 l 186 -145 z"},"6":{"x_min":0,"x_max":492,"ha":492,"o":"m 236 34 q 269 34 293 42 q 317 51 337 71 q 357 92 369 128 q 381 165 387 219 q 396 295 391 342 q 386 389 360 409 q 334 429 277 429 q 245 429 207 416 q 168 402 146 388 l 130 237 q 122 159 132 114 q 143 68 167 51 q 192 34 236 34 z m 231 -11 q 137 -11 100 50 q 64 111 77 236 l 114 589 q 139 819 318 819 q 407 819 443 774 q 480 730 471 637 q 471 636 470 627 q 469 619 469 618 l 417 618 q 427 706 403 740 q 380 775 316 775 q 288 775 265 767 q 242 758 222 739 q 201 720 188 685 q 174 650 168 600 l 150 429 q 178 445 216 458 q 254 472 293 472 q 392 472 425 418 q 458 364 442 226 q 430 109 379 49 q 329 -11 231 -11 z"},"r":{"x_min":0,"x_max":283,"ha":283,"o":"m 43 0 l 104 578 l 157 578 l 149 500 q 177 541 218 562 q 258 584 294 584 q 295 584 299 584 q 303 583 304 583 l 298 528 q 291 531 277 531 q 196 531 145 457 l 97 0 z"},"2":{"x_min":0,"x_max":489,"ha":489,"o":"m 33 0 l 38 40 l 298 382 q 354 455 373 486 q 413 553 420 623 q 428 694 400 734 q 372 774 312 774 q 271 774 241 761 q 211 748 194 723 q 176 697 166 667 q 157 636 152 593 q 151 592 151 586 q 150 581 150 580 l 98 580 l 100 596 q 112 709 164 764 q 216 819 315 819 q 401 819 442 765 q 482 712 472 615 q 469 587 460 559 q 451 530 440 508 q 430 486 411 458 q 393 429 380 412 q 368 395 345 365 l 99 45 l 396 45 l 391 0 z"},"{":{"x_min":0,"x_max":232,"ha":232,"o":"m 178 -149 q 160 -149 147 -148 q 134 -148 122 -145 q 110 -142 102 -139 q 95 -137 88 -129 q 82 -121 79 -115 q 75 -109 73 -95 q 71 -81 71 -70 q 71 -59 72 -37 q 73 -15 75 3 q 77 21 80 53 l 93 175 q 102 257 94 286 q 85 314 49 314 l 54 360 q 90 360 104 388 q 118 416 127 500 l 139 616 q 145 667 148 693 q 151 719 158 747 q 166 774 173 784 q 181 794 196 804 q 212 813 230 815 q 249 817 280 817 l 275 777 q 226 777 215 755 q 204 732 192 616 l 178 484 q 170 410 155 379 q 140 347 108 337 q 138 328 146 296 q 155 265 147 190 l 132 53 q 122 -50 124 -73 q 126 -99 144 -104 q 155 -108 182 -108 z"},"9":{"x_min":0,"x_max":492,"ha":492,"o":"m 267 379 q 341 379 397 420 l 413 571 q 421 649 412 695 q 402 740 377 757 q 353 774 309 774 q 242 774 205 732 q 167 690 157 589 q 147 513 153 466 q 158 419 184 399 q 210 379 267 379 z m 230 -11 q 141 -11 102 34 q 63 79 73 172 q 73 172 74 181 l 75 190 l 126 190 q 117 102 141 67 q 165 33 236 33 q 265 33 287 41 q 309 49 327 69 q 346 88 358 123 q 370 158 375 208 l 393 379 q 372 362 335 349 q 299 336 251 336 q 152 336 119 390 q 86 444 101 583 q 113 699 165 759 q 216 819 314 819 q 408 819 444 758 q 479 697 466 572 l 429 219 q 417 107 370 48 q 322 -11 230 -11 z"}," ":{"x_min":0,"x_max":189,"ha":189,"o":""},"I":{"x_min":0,"x_max":206,"ha":206,"o":"m 55 0 l 140 810 l 194 810 l 109 0 z"},"H":{"x_min":0,"x_max":542,"ha":542,"o":"m 53 0 l 138 810 l 193 810 l 155 445 l 438 445 l 477 810 l 531 810 l 446 0 l 392 0 l 434 403 l 151 403 l 108 0 z"},"4":{"x_min":0,"x_max":493,"ha":493,"o":"m 123 298 l 317 298 l 362 732 z m 285 0 l 312 249 l 62 249 l 67 300 l 361 810 l 423 810 l 370 298 l 463 298 l 458 249 l 365 249 l 338 0 z"},"~":{"x_min":0,"x_max":382,"ha":382,"o":"m 276 381 q 256 381 211 409 q 166 436 151 436 q 128 436 81 395 l 63 419 q 120 476 159 476 q 178 476 223 449 q 268 422 282 422 q 292 422 302 427 q 313 432 320 437 q 328 442 350 458 l 367 434 q 309 381 276 381 z"},"D":{"x_min":0,"x_max":517,"ha":517,"o":"m 54 0 l 139 810 l 316 810 q 364 810 399 798 q 434 786 454 765 q 475 744 487 715 q 500 686 501 651 q 502 616 499 577 l 464 241 q 458 186 444 144 q 430 102 404 69 q 377 35 335 18 q 293 0 236 0 z m 113 43 l 238 43 q 270 43 295 50 q 321 57 338 72 q 356 86 368 104 q 381 121 389 146 q 397 170 402 193 q 406 217 410 247 l 444 573 q 450 617 446 653 q 442 689 429 714 q 416 739 386 753 q 357 766 312 766 l 189 766 z"},"^":{"x_min":0,"x_max":365,"ha":365,"o":"m 60 525 l 218 810 l 276 810 l 374 525 l 329 525 l 244 776 l 105 525 z"},"0":{"x_min":0,"x_max":493,"ha":493,"o":"m 224 -11 q 170 -11 134 7 q 98 25 82 57 q 65 88 60 132 q 54 176 61 228 l 98 582 q 104 636 117 678 q 131 720 156 752 q 181 785 220 802 q 259 819 312 819 q 364 819 400 802 q 436 784 453 753 q 470 721 476 677 q 482 634 476 582 l 438 228 q 433 172 419 131 q 406 90 382 57 q 358 24 318 7 q 278 -11 224 -11 z m 229 30 q 301 30 337 80 q 373 129 382 219 l 421 590 q 427 631 423 666 q 419 700 407 725 q 396 750 370 764 q 345 778 308 778 q 277 778 253 769 q 229 760 212 744 q 195 728 183 704 q 171 680 164 652 q 157 625 153 590 l 114 219 q 109 178 113 143 q 117 108 129 83 q 141 58 166 44 q 191 30 229 30 z"},"F":{"x_min":0,"x_max":383,"ha":383,"o":"m 54 0 l 139 810 l 418 810 l 414 767 l 189 767 l 155 441 l 349 441 l 344 399 l 151 399 l 108 0 z"},"`":{"x_min":0,"x_max":209,"ha":209,"o":"m 175 616 l 115 810 l 168 810 l 203 616 z"},"k":{"x_min":0,"x_max":383,"ha":383,"o":"m 36 0 l 122 810 l 174 810 l 119 276 l 365 578 l 422 578 l 247 357 l 353 0 l 299 0 l 204 325 l 112 217 l 89 0 z"},"u":{"x_min":0,"x_max":395,"ha":395,"o":"m 121 -9 q 79 -9 58 21 q 37 52 43 117 l 91 578 l 145 578 l 97 123 q 92 73 105 52 q 119 32 148 32 q 178 32 211 51 q 244 70 274 102 l 324 578 l 377 578 l 317 0 l 264 0 l 271 68 q 201 -9 121 -9 z"},"]":{"x_min":0,"x_max":270,"ha":270,"o":"m 13 -144 l 16 -112 l 110 -112 l 203 777 l 109 777 l 113 810 l 260 810 l 160 -144 z"},"U":{"x_min":0,"x_max":533,"ha":533,"o":"m 245 -11 q 198 -11 164 -1 q 130 9 110 27 q 89 45 77 70 q 65 95 64 125 q 62 155 65 190 l 130 810 l 183 810 l 118 189 q 115 162 116 139 q 118 115 126 96 q 135 77 150 63 q 165 49 190 42 q 215 34 250 34 q 397 34 414 189 l 479 810 l 532 810 l 467 190 q 446 -11 245 -11 z"},"o":{"x_min":0,"x_max":383,"ha":383,"o":"m 169 -9 q 113 -9 83 16 q 53 41 46 89 q 40 138 47 211 l 64 367 q 70 424 81 463 q 91 501 111 531 q 130 560 160 574 q 190 587 232 587 q 289 587 319 562 q 349 538 355 489 q 362 439 355 367 l 338 211 q 326 96 289 43 q 252 -9 169 -9 z m 174 31 q 199 31 217 39 q 234 47 246 61 q 257 74 265 99 q 273 123 277 147 q 281 171 285 209 l 302 369 q 307 425 306 465 q 306 504 287 526 q 269 547 228 547 q 203 547 185 539 q 167 531 156 517 q 145 503 137 479 q 129 455 125 431 q 121 406 117 369 l 100 209 q 95 153 95 113 q 96 74 115 52 q 133 31 174 31 z"},"N":{"x_min":0,"x_max":515,"ha":515,"o":"m 54 0 l 139 810 l 183 810 l 385 126 l 457 810 l 505 810 l 420 0 l 377 0 l 174 685 l 102 0 z"},"+":{"x_min":0,"x_max":364,"ha":364,"o":"m 165 240 l 181 396 l 43 396 l 47 436 l 186 436 l 202 588 l 243 588 l 227 436 l 367 436 l 362 396 l 223 396 l 207 240 z"},"G":{"x_min":0,"x_max":510,"ha":510,"o":"m 230 -11 q 174 -11 137 7 q 100 25 83 58 q 65 91 60 136 q 54 182 62 235 l 98 579 q 104 635 117 677 q 131 718 156 751 q 181 785 222 802 q 263 819 320 819 q 421 819 458 760 q 495 701 482 588 l 479 560 l 428 560 l 432 591 q 441 685 417 730 q 392 774 316 774 q 281 774 255 765 q 228 755 211 739 q 193 723 181 698 q 169 672 163 645 q 157 617 153 581 l 116 228 q 110 184 113 148 q 117 112 129 87 q 142 62 169 48 q 196 34 239 34 q 315 34 350 82 q 385 129 395 225 l 407 344 l 279 344 l 283 386 l 463 386 l 423 0 l 387 0 l 389 91 q 346 -11 230 -11 z"},"q":{"x_min":0,"x_max":396,"ha":396,"o":"m 175 32 q 227 32 275 82 l 318 495 q 274 546 226 546 q 173 546 151 503 q 129 460 118 353 l 105 233 q 94 123 108 78 q 122 32 175 32 z m 246 -190 l 271 44 q 220 -9 163 -9 q 88 -9 63 48 q 39 104 53 237 l 63 340 q 77 469 112 528 q 146 587 223 587 q 282 587 322 534 l 327 578 l 380 578 l 299 -190 z"},"d":{"x_min":0,"x_max":395,"ha":395,"o":"m 172 32 q 223 32 272 81 l 315 495 q 273 546 224 546 q 171 546 149 503 q 126 460 115 353 l 103 233 q 91 123 105 78 q 119 32 172 32 z m 160 -9 q 86 -9 61 48 q 36 104 50 237 l 61 340 q 74 469 109 528 q 144 587 220 587 q 281 587 319 534 l 349 810 l 401 810 l 316 0 l 264 0 l 268 44 q 218 -9 160 -9 z"},"1":{"x_min":0,"x_max":403,"ha":403,"o":"m 188 0 l 265 737 q 247 714 208 696 q 170 678 142 670 l 147 716 q 176 724 215 750 q 253 776 280 810 l 326 810 l 241 0 z"},"5":{"x_min":0,"x_max":488,"ha":488,"o":"m 229 -9 q 141 -9 105 42 q 69 94 81 198 l 133 198 q 124 112 148 72 q 172 33 237 33 q 307 33 340 83 q 373 133 384 248 q 391 298 389 336 q 387 374 381 398 q 375 423 360 438 q 346 454 328 460 q 310 466 284 466 q 215 466 163 398 l 120 398 l 163 810 l 458 810 l 451 764 l 204 764 l 168 449 q 217 508 303 508 q 386 508 418 444 q 451 380 437 253 q 423 118 373 54 q 323 -9 229 -9 z"}}}
